<svg xmlns="http://www.w3.org/2000/svg" width="1200" height="630" viewBox="0 0 1200 630">
  <!-- Phase 14k-115: og-image 重做 跟上 14k-113 改版 (HL/L1L2L3/EV gate) -->

  <!-- 背景: 深紫渐变 + 网格 -->
  <defs>
    <linearGradient id="bg" x1="0" y1="0" x2="1" y2="1">
      <stop offset="0" stop-color="#0a0814"/>
      <stop offset="0.5" stop-color="#0e0a1e"/>
      <stop offset="1" stop-color="#0a0814"/>
    </linearGradient>
    <radialGradient id="glow" cx="0.2" cy="0.3" r="0.8">
      <stop offset="0" stop-color="#a78bfa" stop-opacity="0.18"/>
      <stop offset="1" stop-color="#a78bfa" stop-opacity="0"/>
    </radialGradient>
    <radialGradient id="glow2" cx="0.85" cy="0.85" r="0.6">
      <stop offset="0" stop-color="#7c3aed" stop-opacity="0.15"/>
      <stop offset="1" stop-color="#7c3aed" stop-opacity="0"/>
    </radialGradient>
  </defs>
  <rect width="1200" height="630" fill="url(#bg)"/>
  <rect width="1200" height="630" fill="url(#glow)"/>
  <rect width="1200" height="630" fill="url(#glow2)"/>

  <!-- 细网格 (像 IDE 背景) -->
  <g stroke="#a78bfa" stroke-opacity="0.04" stroke-width="1">
    <path d="M0 100 L1200 100 M0 200 L1200 200 M0 300 L1200 300 M0 400 L1200 400 M0 500 L1200 500"/>
    <path d="M150 0 L150 630 M300 0 L300 630 M450 0 L450 630 M600 0 L600 630 M750 0 L750 630 M900 0 L900 630 M1050 0 L1050 630"/>
  </g>

  <!-- 顶部 LOGO 标识 -->
  <g transform="translate(80, 80)">
    <rect width="6" height="32" fill="#a78bfa" rx="2"/>
    <text x="20" y="22" font-family="'JetBrains Mono', 'SF Mono', monospace" font-size="14" font-weight="700" fill="#a78bfa" letter-spacing="3">QUANT PRO</text>
    <text x="20" y="46" font-family="'JetBrains Mono', monospace" font-size="11" fill="#9b8fbe" letter-spacing="1">v14k · AI 量化驾驶舱</text>
  </g>

  <!-- 主标题 -->
  <text x="80" y="240" font-family="'Inter', 'Noto Sans SC', sans-serif" font-size="58" font-weight="800" fill="#f5f3ff">
    你自己的 AI 量化驾驶舱
  </text>

  <!-- 副标题 -->
  <text x="80" y="290" font-family="'Inter', 'Noto Sans SC', sans-serif" font-size="22" font-weight="500" fill="#cfc4e8">
    OKX + Hyperliquid 双交易所实盘 · 软件工具租赁不替你下单
  </text>

  <!-- 4 个核心 chip -->
  <g transform="translate(80, 360)" font-family="'Inter', 'Noto Sans SC', sans-serif">
    <!-- Chip 1: L1/L2/L3 -->
    <g>
      <rect x="0" y="0" width="225" height="50" rx="25" fill="rgba(167,139,250,0.08)" stroke="#a78bfa" stroke-opacity="0.35"/>
      <text x="22" y="32" font-size="16" font-weight="700" fill="#a78bfa">L1/L2/L3</text>
      <text x="125" y="32" font-size="14" font-weight="500" fill="#dcd4f0">三层 AI 架构</text>
    </g>
    <!-- Chip 2: 10 actions -->
    <g transform="translate(245, 0)">
      <rect x="0" y="0" width="225" height="50" rx="25" fill="rgba(167,139,250,0.08)" stroke="#a78bfa" stroke-opacity="0.35"/>
      <text x="22" y="32" font-size="16" font-weight="700" fill="#a78bfa">10 actions</text>
      <text x="135" y="32" font-size="14" font-weight="500" fill="#dcd4f0">智能托管</text>
    </g>
    <!-- Chip 3: EV 双轨 -->
    <g transform="translate(490, 0)">
      <rect x="0" y="0" width="240" height="50" rx="25" fill="rgba(167,139,250,0.08)" stroke="#a78bfa" stroke-opacity="0.35"/>
      <text x="22" y="32" font-size="16" font-weight="700" fill="#a78bfa">EV 双轨</text>
      <text x="105" y="32" font-size="14" font-weight="500" fill="#dcd4f0">回测真理守门</text>
    </g>
    <!-- Chip 4: USDT 4 链 -->
    <g transform="translate(0, 70)">
      <rect x="0" y="0" width="225" height="50" rx="25" fill="rgba(167,139,250,0.08)" stroke="#a78bfa" stroke-opacity="0.35"/>
      <text x="22" y="32" font-size="16" font-weight="700" fill="#a78bfa">USDT 4 链</text>
      <text x="125" y="32" font-size="14" font-weight="500" fill="#dcd4f0">订阅 · 无 KYC</text>
    </g>
    <!-- Chip 5: 22+ 策略每日扩张 -->
    <g transform="translate(245, 70)">
      <rect x="0" y="0" width="225" height="50" rx="25" fill="rgba(167,139,250,0.08)" stroke="#a78bfa" stroke-opacity="0.35"/>
      <text x="22" y="32" font-size="16" font-weight="700" fill="#a78bfa">22+ 模板</text>
      <text x="125" y="32" font-size="14" font-weight="500" fill="#dcd4f0">AI 每日扩张</text>
    </g>
    <!-- Chip 6: 不持有资金 -->
    <g transform="translate(490, 70)">
      <rect x="0" y="0" width="240" height="50" rx="25" fill="rgba(167,139,250,0.08)" stroke="#a78bfa" stroke-opacity="0.35"/>
      <text x="22" y="32" font-size="16" font-weight="700" fill="#a78bfa">不持有资金</text>
      <text x="135" y="32" font-size="14" font-weight="500" fill="#dcd4f0">不替你下单</text>
    </g>
  </g>

  <!-- 右侧装饰: 简化 candle chart -->
  <g transform="translate(820, 220)" stroke-width="0">
    <!-- 网格 -->
    <g stroke="#a78bfa" stroke-opacity="0.1" stroke-width="1" fill="none">
      <path d="M0 50 L280 50 M0 100 L280 100 M0 150 L280 150"/>
    </g>
    <!-- K 线 (绿涨红跌交替) -->
    <g>
      <!-- 烛 1 -->
      <rect x="10" y="80" width="14" height="50" fill="#10b981"/>
      <line x1="17" y1="60" x2="17" y2="80" stroke="#10b981" stroke-width="2"/>
      <line x1="17" y1="130" x2="17" y2="145" stroke="#10b981" stroke-width="2"/>
      <!-- 烛 2 -->
      <rect x="35" y="60" width="14" height="40" fill="#10b981"/>
      <line x1="42" y1="45" x2="42" y2="60" stroke="#10b981" stroke-width="2"/>
      <line x1="42" y1="100" x2="42" y2="115" stroke="#10b981" stroke-width="2"/>
      <!-- 烛 3 -->
      <rect x="60" y="50" width="14" height="35" fill="#ef4444"/>
      <line x1="67" y1="40" x2="67" y2="50" stroke="#ef4444" stroke-width="2"/>
      <line x1="67" y1="85" x2="67" y2="105" stroke="#ef4444" stroke-width="2"/>
      <!-- 烛 4 -->
      <rect x="85" y="65" width="14" height="40" fill="#10b981"/>
      <line x1="92" y1="50" x2="92" y2="65" stroke="#10b981" stroke-width="2"/>
      <line x1="92" y1="105" x2="92" y2="120" stroke="#10b981" stroke-width="2"/>
      <!-- 烛 5 -->
      <rect x="110" y="40" width="14" height="50" fill="#10b981"/>
      <line x1="117" y1="25" x2="117" y2="40" stroke="#10b981" stroke-width="2"/>
      <line x1="117" y1="90" x2="117" y2="100" stroke="#10b981" stroke-width="2"/>
      <!-- 烛 6 -->
      <rect x="135" y="35" width="14" height="40" fill="#ef4444"/>
      <line x1="142" y1="25" x2="142" y2="35" stroke="#ef4444" stroke-width="2"/>
      <line x1="142" y1="75" x2="142" y2="95" stroke="#ef4444" stroke-width="2"/>
      <!-- 烛 7 -->
      <rect x="160" y="55" width="14" height="50" fill="#10b981"/>
      <line x1="167" y1="40" x2="167" y2="55" stroke="#10b981" stroke-width="2"/>
      <line x1="167" y1="105" x2="167" y2="120" stroke="#10b981" stroke-width="2"/>
      <!-- 烛 8 -->
      <rect x="185" y="30" width="14" height="55" fill="#10b981"/>
      <line x1="192" y1="15" x2="192" y2="30" stroke="#10b981" stroke-width="2"/>
      <line x1="192" y1="85" x2="192" y2="95" stroke="#10b981" stroke-width="2"/>
      <!-- 烛 9 -->
      <rect x="210" y="20" width="14" height="45" fill="#10b981"/>
      <line x1="217" y1="10" x2="217" y2="20" stroke="#10b981" stroke-width="2"/>
      <line x1="217" y1="65" x2="217" y2="80" stroke="#10b981" stroke-width="2"/>
      <!-- 烛 10 -->
      <rect x="235" y="35" width="14" height="40" fill="#ef4444"/>
      <line x1="242" y1="20" x2="242" y2="35" stroke="#ef4444" stroke-width="2"/>
      <line x1="242" y1="75" x2="242" y2="90" stroke="#ef4444" stroke-width="2"/>
    </g>
    <!-- AI 趋势线 (紫色) -->
    <path d="M17 100 L42 80 L67 70 L92 75 L117 60 L142 50 L167 70 L192 45 L217 35 L242 50"
          stroke="#a78bfa" stroke-width="2" fill="none" opacity="0.7"/>
    <!-- 标签 -->
    <text x="0" y="180" font-family="'JetBrains Mono', monospace" font-size="11" fill="#a78bfa" letter-spacing="1">AI · WALK-FORWARD · EV GATE</text>
  </g>

  <!-- 底部 URL -->
  <g transform="translate(80, 580)">
    <rect width="4" height="20" fill="#a78bfa" rx="1"/>
    <text x="14" y="14" font-family="'JetBrains Mono', monospace" font-size="13" fill="#a78bfa" letter-spacing="1">ai-quant.medias-ai.cloud</text>
    <text x="14" y="30" font-family="'Inter', sans-serif" font-size="10" fill="#9b8fbe" letter-spacing="0.5">USDT 4 链订阅 · 不替你下单 · 不持有资金</text>
  </g>

  <!-- 右下角装饰: 小标识 -->
  <g transform="translate(1050, 560)" font-family="'JetBrains Mono', monospace" font-size="10" fill="#a78bfa" opacity="0.6" letter-spacing="1">
    <text x="0" y="0">[ OKX ]</text>
    <text x="50" y="0">[ HL ]</text>
    <text x="0" y="18">v14k · 110+ commits</text>
  </g>
</svg>
